<svg style="display: none">

	<symbol id="speed" version="1.1" xmlns="http://www.w3.org/2000/svg" xmlns:xlink="http://www.w3.org/1999/xlink"
		viewBox="0 0 512 512" xml:space="preserve">
		<g>
			<path fill="inherit" d="M300.232,93.922c25.938-0.01,46.952-21.022,46.961-46.961C347.184,21.022,326.171,0.008,300.232,0
		c-25.938,0.008-46.952,21.022-46.961,46.961C253.281,72.899,274.294,93.912,300.232,93.922z M300.232,18.784
		c15.556,0.027,28.149,12.62,28.176,28.176c-0.027,15.555-12.62,28.148-28.176,28.176c-15.556-0.028-28.149-12.621-28.176-28.176
		C272.083,31.404,284.677,18.812,300.232,18.784z" />
			<path fill="inherit" d="M114.93,163.528c3.622,4.348,8.503,7.475,14.015,9.218l-0.01,0.019l49.327,16.537l0.119,0.036
		c5.705,1.743,11.612,2.615,17.528,2.615c5.494,0,10.988-0.752,16.326-2.265l35.487-10.035l5.806,27.599l-49.464,24.095
		c-15.785,6.126-28.094,18.894-33.561,34.964l-30.79,90.656l-0.037,0.138c-0.908,2.944-1.339,5.952-1.339,8.906
		c0,13.107,8.484,25.168,21.655,29.204c2.99,0.907,6.044,1.376,9.071,1.376c6.347,0.008,12.483-2.101,17.454-5.834
		c4.806-3.587,8.521-8.594,10.988-14.455l0.009,0.009l39.678-80.512l43.182-23.324l-13.501,27.636l-12.529,90.051l0.009-0.055
		c-0.22,1.476-0.321,2.935-0.321,4.366c0,14.978,10.97,28.002,26.196,30.213c1.66,0.229,3.302,0.357,4.953,0.357
		c6.879,0.038,13.749-2.274,19.032-6.887c5.219-4.513,8.704-10.952,10.364-18.345h0.009l21.307-82.153l28.048-47.007
		c11.034-15.308,16.868-33.588,16.868-52.18c0-5.788-0.587-11.602-1.734-17.372h0.01l-2.806-20.536l18.224,7.924l32.102,46.824
		c4.65,8.878,13.712,14.143,23.232,14.134c3.651,0,7.375-0.771,10.878-2.367c9.686-4.412,15.446-13.96,15.428-23.958
		c0.009-3.586-0.752-7.246-2.302-10.694l0.018-0.009l-24.095-55.729l-0.073-0.156c-5.054-10.676-13.767-19.198-24.581-23.994
		l-44.686-19.848c-18.262-8.108-37.972-12.264-57.839-12.264c-4.971,0-9.952,0.267-14.914,0.789l-33.964,3.577
		c-13.804,1.449-27.332,4.944-40.136,10.309l-41.861,12.456l-51.95-6.172l-0.01,0.046c-1.504-0.266-3.008-0.459-4.486-0.459
		c-12.281,0-23.186,8.604-25.746,21.059c-0.366,1.753-0.541,3.504-0.541,5.229C108.968,153.402,111.261,159.144,114.93,163.528z
		 M127.917,145.817l0.009-0.036c0.697-3.568,3.871-6.018,7.337-6.018l1.505,0.147l0.385,0.082l0.385,0.046l55.803,6.632
		l46.319-13.776l0.504-0.211c11.3-4.825,23.279-7.924,35.505-9.218l33.964-3.577c4.311-0.449,8.64-0.679,12.951-0.679
		c17.252,0,34.358,3.605,50.208,10.649l44.696,19.848c6.696,2.962,12.079,8.228,15.207,14.85l23.948,55.372l0.046,0.091
		c0.468,1.037,0.67,2.064,0.67,3.1c-0.009,2.862-1.624,5.595-4.421,6.861c-1.037,0.468-2.064,0.679-3.1,0.679
		c-2.852-0.009-5.586-1.624-6.852-4.43l-0.339-0.743l-35.707-52.078l-53.794-23.389l7.374,53.932l0.065,0.312
		c0.963,4.715,1.44,9.475,1.44,14.208c0,14.895-4.715,29.534-13.666,41.733l-0.266,0.358l-29.708,49.777l-22.022,84.924
		l-0.046,0.201c-0.982,4.458-2.669,6.99-4.403,8.493c-1.752,1.478-3.733,2.266-6.732,2.302l-2.293-0.174
		c-5.842-0.816-10.071-5.889-10.071-11.612l0.119-1.67l0.018-0.11l12.116-87.024l17.757-36.377c1-2.036,1.495-4.265,1.495-6.457
		c0.009-3.696-1.403-7.337-4.036-10.116c-2.834-2.99-6.732-4.604-10.686-4.604c-1.908,0-3.88,0.376-5.742,1.174l-0.404,0.164
		l-60.462,32.662l-42.494,86.226l-0.128,0.331c-1.33,3.33-3.174,5.604-5.081,7.025c-1.935,1.422-3.926,2.092-6.228,2.11
		c-1.11-0.009-2.302-0.174-3.614-0.569c-5.063-1.522-8.319-6.218-8.328-11.226c0-1.11,0.165-2.229,0.505-3.366l30.671-90.29
		c3.733-11.007,12.226-19.72,23.132-23.746l0.44-0.166l63.067-30.717l-12.978-61.627l-54.84,15.519
		c-3.669,1.037-7.438,1.55-11.208,1.55c-4.063,0-8.117-0.596-12.043-1.798l-49.079-16.455l-0.092-0.027
		c-2.394-0.743-4.201-2.018-5.32-3.366c-1.11-1.376-1.596-2.688-1.614-4.265L127.917,145.817z" />
			<path fill="inherit"
				d="M109.537,141.918l-0.027,0.138c0-0.01,0.008-0.019,0.008-0.028v-0.008L109.537,141.918z" />
			<path fill="inherit" d="M300.287,252.707v0.009c0.009,0,0.009,0,0.018,0.01L300.287,252.707z" />
			<path fill="inherit" d="M486.424,481.925c-3.054-9.97-9.658-19.885-18.738-30.313c-27.287-30.993-78.164-66.112-132.609-86.163
		l-6.457,17.629c34.147,12.51,67.524,31.872,93.16,51.739c12.822,9.914,23.719,19.967,31.781,29.176
		c6.714,7.604,11.254,14.629,13.593,20.087c-0.257,0.229-0.532,0.468-0.927,0.752c-2.825,2.064-9.356,4.512-18.363,6.007
		c-9.006,1.55-20.49,2.375-33.642,2.375c-55.986,0.046-142.01-14.803-212.727-43.145c-52.51-20.995-92.536-46.254-119.044-70.533
		c-13.263-12.125-23.122-24.002-29.516-34.753c-6.43-10.768-9.273-20.324-9.246-27.708c0-2.33,0.34-4.412,0.835-6.365
		c1.624-1.578,4.201-3.082,8.089-4.219c4.724-1.386,11.007-2.073,17.904-2.055c13.822-0.018,29.974,2.642,42.457,5.348
		c6.246,1.357,11.612,2.706,15.382,3.714c1.88,0.514,3.376,0.926,4.375,1.22c1.009,0.284,1.486,0.44,1.495,0.44l5.466-17.976
		c-0.165-0.046-9.52-2.898-22.747-5.76c-13.263-2.852-30.331-5.76-46.428-5.77c-8.062,0.01-15.905,0.716-23.151,2.808
		c-7.172,2.09-14.069,5.695-18.885,12.079l-0.918,1.21l-0.486,1.449c-1.468,4.43-2.174,9.108-2.174,13.877
		c0.028,12.024,4.302,24.535,11.888,37.312c11.428,19.152,30.533,39.137,56.921,58.591c26.388,19.426,60.104,38.247,100.81,54.536
		c73.505,29.341,160.639,44.43,219.698,44.484c18.592-0.018,34.386-1.467,46.704-4.796c6.173-1.688,11.52-3.825,16.069-6.98
		c4.485-3.091,8.447-7.741,9.64-13.758l0.458-2.302L486.424,481.925z" />
		</g>
	</symbol>

	<symbol id="responsive" fill="inherit" viewBox="0 0 30 30" xmlns="http://www.w3.org/2000/svg">
		<path
			d="M25 24.5c0 .276-.224.5-.5.5s-.5-.224-.5-.5.224-.5.5-.5.5.224.5.5zM23.5 12h2c.277 0 .5.223.5.5s-.223.5-.5.5h-2c-.277 0-.5-.223-.5-.5s.223-.5.5-.5zm-3-2c-.822 0-1.5.678-1.5 1.5v14c0 .822.678 1.5 1.5 1.5h8c.822 0 1.5-.678 1.5-1.5v-14c0-.822-.678-1.5-1.5-1.5zm0 1h8c.286 0 .5.214.5.5v14c0 .286-.214.5-.5.5h-8c-.286 0-.5-.214-.5-.5v-14c0-.286.214-.5.5-.5zM14 19.5c0 .276-.224.5-.5.5s-.5-.224-.5-.5.224-.5.5-.5.5.224.5.5zM1.5 3C.678 3 0 3.678 0 4.5v16c0 .822.678 1.5 1.5 1.5H11v2H9.5c-.277 0-.5.223-.5.5s.223.5.5.5h8c.277 0 .5-.223.5-.5s-.223-.5-.5-.5H16v-2h1.5c.668 0 .656-1 0-1h-16c-.286 0-.5-.214-.5-.5V18h16.5c.277 0 .5-.223.5-.5s-.223-.5-.5-.5H1V4.5c0-.286.214-.5.5-.5h24c.286 0 .5.214.5.5v4c0 .665 1 .657 1 0v-4c0-.822-.678-1.5-1.5-1.5zM12 22h3v2h-3z" />
	</symbol>

	<symbol id="bulb" fill="inherit" viewBox="0 0 1024 1024" xmlns="http://www.w3.org/2000/svg">
		<path
			d="M492.373 20.482v76.401c0 11.311 9.169 20.48 20.48 20.48s20.48-9.169 20.48-20.48V20.482c0-11.311-9.169-20.48-20.48-20.48s-20.48 9.169-20.48 20.48zm-269.704 92.457l38.195 66.161c5.655 9.796 18.18 13.152 27.976 7.497s13.152-18.18 7.497-27.976L258.142 92.46c-5.655-9.796-18.18-13.152-27.976-7.497s-13.152 18.18-7.497 27.976zM61.441 310.666l66.161 38.195c9.796 5.655 22.321 2.299 27.976-7.497s2.299-22.321-7.497-27.976L81.92 275.193c-9.796-5.655-22.321-2.299-27.976 7.497s-2.299 22.321 7.497 27.976zm836.66 38.2l66.161-38.195c9.796-5.655 13.152-18.18 7.497-27.976s-18.18-13.152-27.976-7.497l-66.161 38.195c-9.796 5.655-13.152 18.18-7.497 27.976s18.18 13.152 27.976 7.497zM764.837 179.103l38.195-66.161c5.655-9.796 2.299-22.321-7.497-27.976s-22.321-2.299-27.976 7.497l-38.195 66.161c-5.655 9.796-2.299 22.321 7.497 27.976s22.321 2.299 27.976-7.497zM619.705 609.548a20.479 20.479 0 019.029-16.979c53.847-36.315 86.469-95.279 86.469-159.497 0-107.392-90.442-194.744-202.353-194.744s-202.353 87.353-202.353 194.744c0 64.218 32.623 123.181 86.469 159.497a20.48 20.48 0 019.029 16.979v181.903c0 22.143 17.946 40.09 40.09 40.09h133.54c22.134 0 40.079-17.947 40.079-40.09V609.548zm40.96 181.904c0 44.763-36.283 81.05-81.039 81.05h-133.54c-44.765 0-81.05-36.285-81.05-81.05V620.14c-59.555-44.178-95.498-112.657-95.498-187.067 0-130.338 109.092-235.704 243.313-235.704s243.313 105.366 243.313 235.704c0 74.41-35.943 142.89-95.498 187.067v171.312zM410.986 949.054h203.735c11.311 0 20.48-9.169 20.48-20.48s-9.169-20.48-20.48-20.48H410.986c-11.311 0-20.48 9.169-20.48 20.48s9.169 20.48 20.48 20.48zm25.467 76.4h152.801c11.311 0 20.48-9.169 20.48-20.48s-9.169-20.48-20.48-20.48H436.453c-11.311 0-20.48 9.169-20.48 20.48s9.169 20.48 20.48 20.48z" />
	</symbol>

	<symbol id="dynamic" fill="inherit" viewBox="0 0 48 48" version="1" xmlns="http://www.w3.org/2000/svg"
		enable-background="new 0 0 48 48">
		<g fill="inherit">
			<rect x="19" y="22" width="10" height="20" />
			<rect x="32" y="8" width="10" height="34" />
			<rect x="6" y="30" width="10" height="12" />
		</g>
		<g fill="inherit">
			<polygon points="11,8 21,18 21,8" />
			<rect x="11" y="8.9" transform="matrix(-.707 -.707 .707 -.707 10.879 36.506)" width="4" height="14.1" />
		</g>
	</symbol>

	<symbol id="phone" fill="inherit" aria-hidden="true" data-prefix="fas" data-icon="phone" class="svg-inline--fa fa-phone fa-w-16" xmlns="http://www.w3.org/2000/svg" viewBox="0 0 512 512"><path d="M493.4 24.6l-104-24c-11.3-2.6-22.9 3.3-27.5 13.9l-48 112c-4.2 9.8-1.4 21.3 6.9 28l60.6 49.6c-36 76.7-98.9 140.5-177.2 177.2l-49.6-60.6c-6.8-8.3-18.2-11.1-28-6.9l-112 48C3.9 366.5-2 378.1.6 389.4l24 104C27.1 504.2 36.7 512 48 512c256.1 0 464-207.5 464-464 0-11.2-7.7-20.9-18.6-23.4z"/></symbol>

	<symbol id="whatsapp" fill="inherit" xmlns="http://www.w3.org/2000/svg" viewBox="0 0 448 512"><!--! Font Awesome Pro 6.2.1 by @fontawesome - https://fontawesome.com License - https://fontawesome.com/license (Commercial License) Copyright 2022 Fonticons, Inc. --><path d="M380.9 97.1C339 55.1 283.2 32 223.9 32c-122.4 0-222 99.6-222 222 0 39.1 10.2 77.3 29.6 111L0 480l117.7-30.9c32.4 17.7 68.9 27 106.1 27h.1c122.3 0 224.1-99.6 224.1-222 0-59.3-25.2-115-67.1-157zm-157 341.6c-33.2 0-65.7-8.9-94-25.7l-6.7-4-69.8 18.3L72 359.2l-4.4-7c-18.5-29.4-28.2-63.3-28.2-98.2 0-101.7 82.8-184.5 184.6-184.5 49.3 0 95.6 19.2 130.4 54.1 34.8 34.9 56.2 81.2 56.1 130.5 0 101.8-84.9 184.6-186.6 184.6zm101.2-138.2c-5.5-2.8-32.8-16.2-37.9-18-5.1-1.9-8.8-2.8-12.5 2.8-3.7 5.6-14.3 18-17.6 21.8-3.2 3.7-6.5 4.2-12 1.4-32.6-16.3-54-29.1-75.5-66-5.7-9.8 5.7-9.1 16.3-30.3 1.8-3.7.9-6.9-.5-9.7-1.4-2.8-12.5-30.1-17.1-41.2-4.5-10.8-9.1-9.3-12.5-9.5-3.2-.2-6.9-.2-10.6-.2-3.7 0-9.7 1.4-14.8 6.9-5.1 5.6-19.4 19-19.4 46.3 0 27.3 19.9 53.7 22.6 57.4 2.8 3.7 39.1 59.7 94.8 83.8 35.2 15.2 49 16.5 66.6 13.9 10.7-1.6 32.8-13.4 37.4-26.4 4.6-13 4.6-24.1 3.2-26.4-1.3-2.5-5-3.9-10.5-6.6z"/></symbol>

	<symbol id="skype" fill="inherit" aria-hidden="true" data-prefix="fab" data-icon="skype" class="svg-inline--fa fa-skype fa-w-14" xmlns="http://www.w3.org/2000/svg" viewBox="0 0 448 512"><path d="M424.7 299.8c2.9-14 4.7-28.9 4.7-43.8 0-113.5-91.9-205.3-205.3-205.3-14.9 0-29.7 1.7-43.8 4.7C161.3 40.7 137.7 32 112 32 50.2 32 0 82.2 0 144c0 25.7 8.7 49.3 23.3 68.2-2.9 14-4.7 28.9-4.7 43.8 0 113.5 91.9 205.3 205.3 205.3 14.9 0 29.7-1.7 43.8-4.7 19 14.6 42.6 23.3 68.2 23.3 61.8 0 112-50.2 112-112 .1-25.6-8.6-49.2-23.2-68.1zm-194.6 91.5c-65.6 0-120.5-29.2-120.5-65 0-16 9-30.6 29.5-30.6 31.2 0 34.1 44.9 88.1 44.9 25.7 0 42.3-11.4 42.3-26.3 0-18.7-16-21.6-42-28-62.5-15.4-117.8-22-117.8-87.2 0-59.2 58.6-81.1 109.1-81.1 55.1 0 110.8 21.9 110.8 55.4 0 16.9-11.4 31.8-30.3 31.8-28.3 0-29.2-33.5-75-33.5-25.7 0-42 7-42 22.5 0 19.8 20.8 21.8 69.1 33 41.4 9.3 90.7 26.8 90.7 77.6 0 59.1-57.1 86.5-112 86.5z"/></symbol>

	<symbol id="email" fill="inherit" xmlns="http://www.w3.org/2000/svg" viewBox="0 0 512 512"><!--! Font Awesome Pro 6.2.1 by @fontawesome - https://fontawesome.com License - https://fontawesome.com/license (Commercial License) Copyright 2022 Fonticons, Inc. --><path d="M48 64C21.5 64 0 85.5 0 112c0 15.1 7.1 29.3 19.2 38.4L236.8 313.6c11.4 8.5 27 8.5 38.4 0L492.8 150.4c12.1-9.1 19.2-23.3 19.2-38.4c0-26.5-21.5-48-48-48H48zM0 176V384c0 35.3 28.7 64 64 64H448c35.3 0 64-28.7 64-64V176L294.4 339.2c-22.8 17.1-54 17.1-76.8 0L0 176z"/></symbol>

	<symbol id="linkedin" fill="inherit" viewBox="0 -2 44 44" version="1.1" xmlns="http://www.w3.org/2000/svg" xmlns:xlink="http://www.w3.org/1999/xlink">
    	<g stroke="none" stroke-width="1" fill-rule="evenodd">
        <g transform="translate(-702.000000, -265.000000)">
            <path d="M746,305 L736.2754,305 L736.2754,290.9384 C736.2754,287.257796 734.754233,284.74515 731.409219,284.74515 C728.850659,284.74515 727.427799,286.440738 726.765522,288.074854 C726.517168,288.661395 726.555974,289.478453 726.555974,290.295511 L726.555974,305 L716.921919,305 C716.921919,305 717.046096,280.091247 716.921919,277.827047 L726.555974,277.827047 L726.555974,282.091631 C727.125118,280.226996 730.203669,277.565794 735.116416,277.565794 C741.21143,277.565794 746,281.474355 746,289.890824 L746,305 L746,305 Z M707.17921,274.428187 L707.117121,274.428187 C704.0127,274.428187 702,272.350964 702,269.717936 C702,267.033681 704.072201,265 707.238711,265 C710.402634,265 712.348071,267.028559 712.41016,269.710252 C712.41016,272.34328 710.402634,274.428187 707.17921,274.428187 L707.17921,274.428187 L707.17921,274.428187 Z M703.109831,277.827047 L711.685795,277.827047 L711.685795,305 L703.109831,305 L703.109831,277.827047 L703.109831,277.827047 Z">
						</path>
        </g>
    </g>
	</symbol>

</svg>